<svg
   xmlns:svg="http://www.w3.org/2000/svg"
   xmlns="http://www.w3.org/2000/svg"
   version="1.0"
   width="435.54639"
   height="257.67773"
   viewBox="0 0 435.54639 257.67773"
   id="svg2"
   xml:space="preserve"><defs
   id="defs16" />

		<g
   id="Ebene_1">
			<g
   id="g7">
				<rect
   width="435.54639"
   height="257.67773"
   x="0"
   y="0"
   style="fill:#ff0000"
   id="rect9" />
				<path
   d="M 385.20557,221.49609 L 258.95264,221.49609 L 258.95264,190.1914 C 274.46436,176.07617 338.33155,122.36913 338.33155,85.6162 C 338.33155,67.82274 328.5669,59.21776 310.1587,59.21776 C 294.33058,59.21776 278.77491,66.10838 266.70753,74.71337 L 263.24073,43.68749 C 280.51026,33.64452 300.64991,29.90575 319.64991,29.90575 C 357.60401,29.90575 379.20264,50.00682 379.20264,82.76464 C 379.20264,124.39989 335.18018,161.76757 304.41065,190.76366 L 385.20557,190.76366 L 385.20557,221.49609 L 385.20557,221.49609 z "
   style="fill:#ffffff"
   id="path11" />
				<path
   d="M 60.42139,153.396 L 60.42139,33.07324 L 98.12451,33.07324 L 98.12451,141.94287 C 98.12451,174.40625 108.47754,195.35156 137.55908,195.35156 C 166.30224,195.35156 176.3833,174.40625 176.3833,141.94287 L 176.3833,33.07324 L 214.63525,33.07324 L 214.63525,153.396 C 214.63525,203.95215 186.16894,224.34766 137.55908,224.34766 C 89.20459,224.34766 60.42139,203.95215 60.42139,153.396 z "
   style="fill:#ffffff"
   id="path13" />
			</g>
		</g>
</svg>
