<svg
   xmlns:svg="http://www.w3.org/2000/svg"
   xmlns="http://www.w3.org/2000/svg"
   version="1.0"
   width="435.55225"
   height="257.67676"
   viewBox="0 0 435.55225 257.67676"
   id="svg2"
   xml:space="preserve"><defs
   id="defs16" />

		<g
   id="Ebene_1">
			<g
   id="g7">
				<rect
   width="435.55225"
   height="257.67676"
   x="0"
   y="0"
   style="fill:#feff00"
   id="rect9" />
				<path
   d="M 60.42188,153.43896 L 60.42188,33.05664 L 98.12549,33.05664 L 98.12549,141.94287 C 98.12549,174.40625 108.45752,195.37402 137.49561,195.37402 C 166.28272,195.37402 176.3628,174.40625 176.3628,141.94287 L 176.3628,33.05664 L 214.63819,33.05664 L 214.63819,153.43896 C 214.63819,203.99511 186.14942,224.37011 137.49561,224.37011 C 89.20459,224.37012 60.42188,203.99512 60.42188,153.43896 z "
   id="path11" />
				<path
   d="M 286.53369,154.625 L 334.57471,154.625 L 334.57471,71.86084 L 286.53369,154.625 z M 252.89111,183.02832 L 252.89111,152.00244 L 323.92236,33.05664 L 370.24853,33.05664 L 370.24853,154.625 L 394.99658,154.625 L 394.99658,183.02832 L 370.24853,183.02832 L 370.24853,221.49512 L 334.5747,221.49512 L 334.5747,183.02832 L 252.89111,183.02832 L 252.89111,183.02832 z "
   style="fill-rule:evenodd"
   id="path13" />
			</g>
		</g>
	</svg>
