<svg
   xmlns:svg="http://www.w3.org/2000/svg"
   xmlns="http://www.w3.org/2000/svg"
   version="1.0"
   width="435.5498"
   height="257.67627"
   viewBox="0 0 435.5498 257.67627"
   id="svg2"
   xml:space="preserve"><defs
   id="defs16" />

		<g
   id="Ebene_1">
			<g
   id="g7">
				<rect
   width="435.5498"
   height="257.67627"
   x="0"
   y="0"
   style="fill:#993301"
   id="rect9" />
				<path
   d="M 380.60059,33.03418 L 380.60059,61.16553 L 308.15137,61.16553 L 307.55762,101.38526 C 311.61817,100.26319 317.02832,99.39844 324.21387,99.39844 C 351.2666,99.39844 385.24903,112.03711 385.24903,160.85742 C 385.24903,195.92236 360.48145,224.34814 311.61817,224.34814 C 296.90528,224.34814 279.66114,222.31787 267.57227,219.46533 L 267.82325,185.27002 C 277.12403,189.60303 290.56446,195.05225 307.55763,195.05225 C 325.98829,195.05225 347.20607,186.13526 347.20607,161.72364 C 347.20607,136.99464 325.65138,128.98731 304.09084,128.98731 C 292.33889,128.98731 281.34865,130.6753 270.19045,134.43653 L 272.22072,33.03419 L 380.60059,33.03419 L 380.60059,33.03418 z "
   style="fill:#ffffff"
   id="path11" />
				<path
   d="M 60.36426,153.39502 L 60.36426,33.03418 L 98.06983,33.03418 L 98.06983,141.89941 C 98.06983,174.36279 108.4668,195.35107 137.54981,195.35107 C 166.29053,195.35107 176.35401,174.36279 176.35401,141.89941 L 176.35401,33.03418 L 214.64747,33.03418 L 214.64747,153.39502 C 214.64747,203.95166 186.15772,224.34814 137.54981,224.34814 C 89.19189,224.34814 60.36426,203.95166 60.36426,153.39502 z "
   style="fill:#ffffff"
   id="path13" />
			</g>
		</g>
	</svg>
