<svg
   xmlns:svg="http://www.w3.org/2000/svg"
   xmlns="http://www.w3.org/2000/svg"
   version="1.0"
   width="435.55078"
   height="257.67578"
   viewBox="0 0 435.55078 257.67578"
   id="svg2"
   xml:space="preserve"><defs
   id="defs13" />

		<g
   id="Ebene_1">
			<g
   id="g7_1_">
				<rect
   width="435.55078"
   height="257.67578"
   x="0"
   y="0"
   style="fill:#993301"
   id="rect9_1_" />
				<path
   d="M 409.15723,33.03418 L 409.15723,61.16504 L 344.28711,61.16504 L 343.74512,101.38477 C 347.45313,100.2627 352.39356,99.39844 358.95606,99.39844 C 383.66211,99.39844 413.40235,112.03711 413.40235,160.85742 C 413.40235,195.92187 392.07715,224.34765 347.45313,224.34765 C 334.01563,224.34765 319.56055,222.31738 308.52051,219.46484 L 308.75,185.26953 C 317.24414,189.60254 328.22559,195.05176 343.74512,195.05176 C 360.5752,195.05176 378.66016,186.13477 378.66016,161.72364 C 378.66016,136.99415 360.26856,128.98731 340.57911,128.98731 C 329.84571,128.98731 321.10157,130.67481 310.91212,134.43653 L 312.76564,33.03419 L 409.15723,33.03419 L 409.15723,33.03418 z "
   style="fill:#ffffff"
   id="path11_1_" />
				<path
   d="M 286.34277,33.03418 L 286.34277,61.16504 L 221.47265,61.16504 L 220.93066,101.38477 C 224.63867,100.2627 229.5791,99.39844 236.1416,99.39844 C 260.84765,99.39844 290.58789,112.03711 290.58789,160.85742 C 290.58789,195.92187 269.26269,224.34765 224.63867,224.34765 C 211.20166,224.34765 196.74658,222.31738 185.70654,219.46484 L 185.93554,185.26953 C 194.42919,189.60254 205.41064,195.05176 220.93066,195.05176 C 237.76074,195.05176 255.8457,186.13477 255.8457,161.72364 C 255.8457,136.99415 237.4541,128.98731 217.76416,128.98731 C 207.03076,128.98731 198.28711,130.67481 188.09717,134.43653 L 189.95166,33.03419 L 286.34277,33.03419 L 286.34277,33.03418 z "
   style="fill:#ffffff"
   id="path11_17_" />
				<path
   d="M 24.93359,153.39453 L 24.93359,33.03418 L 60.07861,33.03418 L 60.07861,141.89941 C 60.07861,174.3623 64.48095,195.35058 91.58838,195.35058 C 118.37842,195.35058 122.46973,174.3623 122.46973,141.89941 L 122.46973,33.03418 L 158.16211,33.03418 L 158.16211,153.39453 C 158.16211,203.95117 136.896,224.34765 91.58838,224.34765 C 46.51562,224.34766 24.93359,203.95117 24.93359,153.39453 z "
   style="fill:#ffffff"
   id="path13_1_" />
			</g>
		</g>
	</svg>
