<svg
   xmlns:svg="http://www.w3.org/2000/svg"
   xmlns="http://www.w3.org/2000/svg"
   version="1.0"
   width="435.54346"
   height="257.67725"
   viewBox="0 0 435.54346 257.67725"
   id="svg2"
   xml:space="preserve"><defs
   id="defs16" />

		<g
   id="Ebene_1">
			<g
   id="g7">
				<rect
   width="435.54346"
   height="257.67725"
   x="0"
   y="0"
   style="fill:#00cfcd"
   id="rect9" />
				<polygon
   points="262.06592,62.64111 262.06592,33.05273 383.46436,33.05273 383.46436,64.07861 316.08936,221.49072 275.50928,221.49072 345.17139,62.64111 262.06592,62.64111 "
   style="fill:#ffffff"
   id="polygon11" />
				<path
   d="M 60.35889,153.43945 L 60.35889,33.05273 L 98.06397,33.05273 L 98.06397,141.94335 C 98.06397,174.40673 108.37842,195.36962 137.45655,195.36962 C 166.20118,195.36962 176.26026,174.40673 176.26026,141.94335 L 176.26026,33.05273 L 214.55762,33.05273 L 214.55762,153.43945 C 214.55762,203.9956 186.06787,224.36963 137.45655,224.36963 C 89.09912,224.36963 60.35889,203.99561 60.35889,153.43945 z "
   style="fill:#ffffff"
   id="path13" />
			</g>
		</g>
	</svg>
