<svg
   xmlns:svg="http://www.w3.org/2000/svg"
   xmlns="http://www.w3.org/2000/svg"
   version="1.0"
   width="435.54932"
   height="257.67627"
   viewBox="0 0 435.54932 257.67627"
   id="svg2"
   xml:space="preserve"><defs
   id="defs16" />

		<g
   id="Ebene_1">
			<g
   id="g7">
				<rect
   width="435.54932"
   height="257.67627"
   x="0"
   y="0"
   style="fill:#008200"
   id="rect9" />
				<polygon
   points="269.51514,76.9292 324.80225,32.96924 358.44775,32.96924 358.44775,221.40869 320.40479,221.40869 320.40479,76.33643 289.37842,101.61377 269.51514,76.9292 "
   style="fill:#ffffff"
   id="polygon11" />
				<path
   d="M 60.36035,153.35205 L 60.36035,32.96924 L 98.06592,32.96924 L 98.06592,141.85596 C 98.06592,174.31885 108.37988,195.28565 137.46338,195.28565 C 166.20459,195.28565 176.34961,174.31885 176.34961,141.85596 L 176.34961,32.96924 L 214.56104,32.96924 L 214.56104,153.35205 C 214.56104,203.90869 186.07178,224.28174 137.46338,224.28174 C 89.10547,224.28174 60.36035,203.90869 60.36035,153.35205 z "
   style="fill:#ffffff"
   id="path13" />
			</g>
		</g>
	</svg>
