<svg
   xmlns:svg="http://www.w3.org/2000/svg"
   xmlns="http://www.w3.org/2000/svg"
   version="1.0"
   width="435.54639"
   height="257.67725"
   viewBox="0 0 435.54639 257.67725"
   id="svg2"
   xml:space="preserve"><defs
   id="defs16" />

		<g
   id="Ebene_1">
			<g
   id="g7">
				<rect
   width="435.54639"
   height="257.67725"
   x="0"
   y="0"
   style="fill:#008280"
   id="rect9" />
				<path
   d="M 60.42139,153.396 L 60.42139,33.07324 L 98.12451,33.07324 L 98.12451,141.94287 C 98.12451,174.40674 108.47754,195.35107 137.55908,195.35107 C 166.30224,195.35107 176.3833,174.40673 176.3833,141.94287 L 176.3833,33.07324 L 214.63525,33.07324 L 214.63525,153.396 C 214.63525,203.95166 186.16894,224.34815 137.55908,224.34815 C 89.20459,224.34814 60.42139,203.95166 60.42139,153.396 z "
   style="fill:#ffffff"
   id="path11" />
				<path
   d="M 300.86084,111.58057 L 289.26416,111.58057 L 289.26416,138.43946 L 302.6792,138.43946 C 326.66455,138.43946 339.30518,147.66065 339.30518,166.04249 C 339.30518,182.89308 325.02979,195.3296 305.12061,195.3296 C 293.58448,195.3296 282.8003,192.92433 267.21338,186.17042 L 265.33936,216.47413 C 278.50928,221.88331 293.05518,224.34913 309.14307,224.34913 C 350.35889,224.34913 375.87159,202.71925 375.87159,168.26319 C 375.87159,153.30811 370.80518,140.5669 361.32667,132.69971 C 355.42433,127.83252 350.5962,125.69825 338.20167,122.66553 C 349.49757,119.15283 352.47608,117.79834 358.64796,113.50586 C 368.06495,106.68994 373.43019,95.30274 373.43019,81.21436 C 373.43019,50.57911 350.83449,31.32325 315.07472,31.32325 C 301.33644,31.32325 288.46339,33.48292 269.89796,39.19288 L 272.27784,68.7212 C 287.12159,60.84571 297.31397,57.90675 308.1294,57.90675 C 325.5669,57.90675 337.96241,68.48097 337.96241,84.15626 C 337.9624,102.06348 324.79248,111.58057 300.86084,111.58057 z "
   style="fill:#fefefe"
   id="path13" />
			</g>
		</g>
	</svg>
