<svg
   xmlns:svg="http://www.w3.org/2000/svg"
   xmlns="http://www.w3.org/2000/svg"
   version="1.0"
   width="435.54688"
   height="257.67676"
   viewBox="0 0 435.54688 257.67676"
   id="svg2"
   xml:space="preserve"><defs
   id="defs16" />

		<g id="Ebene_1">
			<g id="g7">
				<rect
          width="435.54688"
          height="257.67676"
          x="0"
          y="0"
          style="fill:#993367"
          id="rect9"
        />
				<path
   d="M 60.42139,153.43896 L 60.42139,33.05176 L 98.125,33.05176 L 98.125,141.85596 C 98.125,174.31934 108.48145,195.36914 137.52002,195.36914 C 166.30273,195.36914 176.38281,174.31934 176.38281,141.85596 L 176.38281,33.05176 L 214.59619,33.05176 L 214.59619,153.43897 C 214.59619,203.99122 186.125,224.36915 137.52002,224.36915 C 89.20801,224.36914 60.42139,203.99121 60.42139,153.43896 z "
   style="fill:#ffffff"
   id="path11" />
				<path
   d="M 324.23828,127.82324 C 305.80957,127.82324 298.62402,144.8164 298.62402,160.62402 C 298.62402,180.99804 306.10254,197.06054 325.10449,197.06054 C 342.62597,197.06054 349.85254,179.8164 349.85254,163.16113 C 349.85254,144.81641 342.62598,127.82324 324.23828,127.82324 z M 378.04199,36.77441 L 373.70996,67.54541 C 363.35644,62.64062 353.02051,59.76709 340.33887,59.76709 C 307.51856,59.76709 296.88965,90.54248 295.75,118.35254 C 305.23828,105.41895 317.04883,99.6709 333.1543,99.6709 C 368.80567,99.6709 388.37793,121.81934 388.37793,157.41211 C 388.37793,197.06055 366.52441,225.21289 322.50293,225.21289 C 272.7334,225.21289 259.4834,186.74609 259.4834,137.03857 C 259.4834,86.7373 277.36035,30.51611 338.6084,30.51611 C 352.72656,30.51611 365.36523,32.20801 378.04199,36.77441 z "
   style="fill:#ffffff;fill-rule:evenodd"
   id="path13" />
			</g>
		</g>
	</svg>
