<svg
   xmlns:svg="http://www.w3.org/2000/svg"
   xmlns="http://www.w3.org/2000/svg"
   version="1.0"
   width="435.54053"
   height="257.67725"
   viewBox="0 0 435.54053 257.67725"
   id="svg2"
   xml:space="preserve"><defs
   id="defs16" />

		<g
   id="Ebene_1">
			<g
   id="g7">
				<rect
   width="435.54053"
   height="257.67725"
   x="0"
   y="0"
   style="fill:#080080"
   id="rect9" />
				<path
   d="M 60.37793,153.39746 L 60.37793,33.03418 L 98.08008,33.03418 L 98.08008,141.90137 C 98.08008,174.36475 108.41553,195.31006 137.45264,195.31006 C 166.23584,195.31006 176.31592,174.36475 176.31592,141.90137 L 176.31592,33.03418 L 214.58985,33.03418 L 214.58985,153.39746 C 214.58985,203.95264 186.10157,224.34912 137.45264,224.34912 C 89.16455,224.34912 60.37793,203.95264 60.37793,153.39746 z "
   style="fill:#ffffff"
   id="path11" />
				<path
   d="M 319.58154,138.72852 C 305.48486,145.91358 295.40478,154.54053 295.40478,170.32569 C 295.40478,187.55323 307.77001,197.0835 324.48583,197.0835 C 338.85497,197.0835 350.92235,187.55323 350.92235,172.05811 C 350.92236,153.10352 335.11475,144.18262 319.58154,138.72852 z M 326.47217,108.86719 C 337.98877,103.70801 347.45459,93.37647 347.45459,81.85791 C 347.45459,67.78223 338.85498,57.99512 323.04834,57.99512 C 310.93799,57.99512 297.43506,65.49707 297.43506,80.73731 C 297.43506,96.79932 313.53857,103.98486 326.47217,108.86719 z M 352.40186,120.38525 C 377.39991,132.1582 388.92334,148.81005 388.92334,170.32568 C 388.92334,205.95752 361.30029,225.21435 324.48584,225.21435 C 285.61865,225.21435 257.17432,208.24267 257.17432,173.17822 C 257.17432,151.11718 269.24073,135.01123 291.98096,124.10351 C 273.27979,115.18652 260.59717,99.37548 260.59717,79.55126 C 260.59717,53.72851 284.18115,30.43749 324.16944,30.43749 C 361.00245,30.43749 384.58936,47.95849 384.58936,75.53856 C 384.58936,95.97363 370.78857,114.06592 352.40186,120.38525 z "
   style="fill:#ffffff;fill-rule:evenodd"
   id="path13" />
			</g>
		</g>
	</svg>
