<svg
   xmlns:svg="http://www.w3.org/2000/svg"
   xmlns="http://www.w3.org/2000/svg"
   version="1.0"
   width="435.54102"
   height="257.67627"
   viewBox="0 0 435.54102 257.67627"
   id="svg2"
   xml:space="preserve"><defs
   id="defs16" />

		<g
   id="Ebene_1">
			<g
   id="g7">
				<rect
   width="435.54102"
   height="257.67627"
   x="0"
   y="0"
   style="fill:#ff6600"
   id="rect9" />
				<path
   d="M 60.67676,153.3999 L 60.67676,33.03418 L 98.37842,33.03418 L 98.37842,141.89941 C 98.37842,174.36279 108.71436,195.35107 137.8125,195.35107 C 166.55518,195.35107 176.63574,174.36279 176.63574,141.89941 L 176.63574,33.03418 L 214.88769,33.03418 L 214.88769,153.3999 C 214.88769,203.95166 186.42187,224.34814 137.81249,224.34814 C 89.4585,224.34814 60.67676,203.95166 60.67676,153.3999 z "
   style="fill:#ffffff"
   id="path11" />
				<path
   d="M 324.22949,126.38623 C 342.04883,126.38623 349.5498,109.73437 349.5498,91.07031 C 349.5498,73.54883 341.75,57.44677 323.04785,57.44677 C 305.52734,57.44677 297.47754,74.71337 297.47754,91.64159 C 297.47754,109.73438 305.52734,126.38623 324.22949,126.38623 z M 269.85547,217.77783 L 274.75879,187.59424 C 283.93164,191.88428 294.87695,195.35108 307.8125,195.35108 C 340.88477,195.35108 351.53613,164.30323 352.40137,137.03858 C 342.61621,149.08448 331.09864,154.83692 314.99805,154.83692 C 279.6416,154.83692 260.02539,132.15626 260.02539,97.39014 C 260.02539,56.89698 279.89258,29.8833 323.04785,29.8833 C 375.41894,29.8833 387.1875,72.97754 387.1875,117.21435 C 387.1875,168.34228 370.53711,225.21337 309.54492,225.21337 C 295.44727,225.21338 282.80957,223.18799 269.85547,217.77783 z "
   style="fill:#ffffff;fill-rule:evenodd"
   id="path13" />
			</g>
		</g>
	</svg>
